<svg width="200" height="60" viewBox="0 0 200 60" fill="none" xmlns="http://www.w3.org/2000/svg">
  <path d="M20 10H40C46.0751 10 51 14.9249 51 21V39C51 45.0751 46.0751 50 40 50H20C13.9249 50 9 45.0751 9 39V21C9 14.9249 13.9249 10 20 10Z" fill="#EA580C"/>
  <path d="M24 20V40M24 20H36C38.2091 20 40 21.7909 40 24V28C40 30.2091 38.2091 32 36 32H24V20Z" stroke="white" stroke-width="4" stroke-linecap="round" stroke-linejoin="round"/>
  <path d="M60 20H68.5L76 40H70L68.5 35H60L58.5 40H52.5L60 20ZM61.5 31H67L64.25 23.5L61.5 31Z" fill="#EA580C"/>
  <path d="M78 20H84V35H94V40H78V20Z" fill="#EA580C"/>
  <path d="M96 20H102V40H96V20Z" fill="#EA580C"/>
  <path d="M106 20H112V25H118C121.3 25 124 27.7 124 31V40H118V32C118 31.4477 117.552 31 117 31H112V40H106V20Z" fill="#EA580C"/>
  <path d="M126 20H142V25H132V28H140V33H132V35H142V40H126V20Z" fill="#1F2937"/>
  <path d="M144 20H150V35H160V40H144V20Z" fill="#1F2937"/>
  <path d="M162 20H168V40H162V20Z" fill="#1F2937"/>
  <path d="M170 20H176V25H182C185.3 25 188 27.7 188 31V40H182V32C182 31.4477 181.552 31 181 31H176V40H170V20Z" fill="#1F2937"/>
  <path d="M190 20H196V25H202C205.3 25 208 27.7 208 31V40H202V32C202 31.4477 201.552 31 201 31H196V40H190V20Z" fill="#1F2937"/>
  <path d="M210 20H226C229.3 20 232 22.7 232 26V34C232 37.3 229.3 40 226 40H210V20ZM216 25V35H225C226.657 35 228 33.6569 228 32V28C228 26.3431 226.657 25 225 25H216Z" fill="#1F2937"/>
  <path d="M234 20H240V28L248 20H255L246 29L255 40H248L242 32L240 34V40H234V20Z" fill="#1F2937"/>
</svg>